<?xml version="1.0" standalone="no"?>
<!DOCTYPE svg PUBLIC "-//W3C//DTD SVG 20010904//EN"
 "http://www.w3.org/TR/2001/REC-SVG-20010904/DTD/svg10.dtd">
<svg version="1.0" xmlns="http://www.w3.org/2000/svg"
 width="292.000000pt" height="265.000000pt" viewBox="0 0 292.000000 265.000000"
 preserveAspectRatio="xMidYMid meet">

<g transform="translate(0.000000,265.000000) scale(0.100000,-0.100000)"
fill="#000000" stroke="none">
<path d="M1175 2534 c-224 -54 -411 -196 -517 -392 -20 -37 -49 -107 -64 -157
-22 -76 -27 -108 -27 -210 1 -232 80 -417 248 -573 155 -146 376 -224 582
-208 413 34 723 364 723 771 0 124 -13 196 -51 293 -120 301 -405 494 -728
491 -58 0 -133 -7 -166 -15z m252 -135 c245 -34 437 -195 519 -434 22 -66 27
-98 27 -185 1 -119 -17 -199 -65 -293 l-30 -60 -36 36 -35 36 27 42 c16 23 29
54 31 68 2 14 7 59 13 99 22 157 -28 316 -136 433 -131 142 -324 205 -510 165
-71 -15 -190 -67 -204 -89 -5 -8 -17 -2 -38 18 -16 16 -30 32 -30 36 0 13 96
68 165 94 59 23 133 38 207 44 9 0 52 -4 95 -10z m5 -174 c156 -20 319 -178
357 -346 18 -77 11 -219 -10 -219 -5 0 -9 7 -9 15 0 18 -34 37 -54 29 -21 -8
-29 -38 -21 -76 7 -29 6 -30 -12 -17 -11 8 -151 133 -311 278 l-292 264 27 19
c37 24 114 49 177 57 52 7 66 7 148 -4z m-588 -154 l28 -30 -23 -38 c-13 -21
-24 -42 -25 -48 0 -5 -6 -37 -13 -70 -16 -72 -9 -210 13 -275 76 -216 258
-358 481 -376 91 -8 197 15 287 61 l70 35 34 -29 34 -30 -28 -19 c-135 -95
-338 -135 -497 -98 -123 29 -209 79 -305 175 -97 98 -138 170 -172 303 -26
106 -21 229 15 334 28 81 54 134 65 134 5 0 21 -13 36 -29z m396 -357 c91 -82
207 -187 259 -234 l93 -84 -22 -18 c-12 -10 -54 -28 -92 -39 -55 -17 -88 -21
-162 -17 -84 3 -102 8 -169 41 -169 84 -258 226 -260 412 0 51 4 99 11 110 10
17 11 17 12 3 0 -26 39 -49 62 -37 13 7 18 21 18 51 l0 42 43 -40 c23 -22 116
-108 207 -190z"/>
<path d="M378 993 c7 -3 16 -2 19 1 4 3 -2 6 -13 5 -11 0 -14 -3 -6 -6z"/>
<path d="M318 983 c7 -3 16 -2 19 1 4 3 -2 6 -13 5 -11 0 -14 -3 -6 -6z"/>
<path d="M438 983 c7 -3 16 -2 19 1 4 3 -2 6 -13 5 -11 0 -14 -3 -6 -6z"/>
<path d="M237 950 c-43 -27 -107 -100 -107 -123 0 -5 15 13 33 39 20 31 52 61
87 81 30 18 50 33 44 33 -6 0 -31 -13 -57 -30z"/>
<path d="M511 955 c53 -27 94 -72 120 -130 10 -22 19 -34 19 -27 1 44 -90 151
-146 172 -44 17 -41 10 7 -15z"/>
<path d="M335 951 c-44 -11 -76 -29 -113 -65 l-33 -31 48 -6 c41 -4 45 -7 27
-15 -21 -9 -21 -9 15 -119 21 -60 40 -117 42 -125 3 -8 17 19 31 60 l25 75
-20 53 c-11 28 -26 52 -33 52 -7 0 -16 5 -19 10 -4 6 23 10 74 10 47 0 81 -4
81 -10 0 -5 -7 -10 -15 -10 -22 0 -19 -13 23 -140 l39 -115 18 60 c23 79 22
121 -4 172 -18 33 -20 46 -11 62 6 12 15 21 21 21 18 0 -2 20 -39 39 -45 23
-115 33 -157 22z"/>
<path d="M719 813 c14 -12 34 -56 54 -122 l33 -104 28 82 c15 44 31 81 35 81
4 0 18 -37 32 -82 l25 -83 28 83 c15 46 25 86 22 89 -3 3 -11 -15 -18 -41 -7
-25 -16 -45 -21 -43 -5 1 -18 32 -29 67 -11 36 -23 68 -27 73 -4 4 -18 -26
-32 -68 -13 -41 -27 -75 -30 -75 -3 0 -16 30 -28 67 -21 64 -21 68 -5 80 15
11 10 13 -35 13 -52 0 -53 0 -32 -17z"/>
<path d="M973 819 c12 -7 16 -17 12 -32 -5 -20 -4 -19 8 2 8 14 23 28 33 32
13 5 4 8 -26 8 -36 0 -41 -2 -27 -10z"/>
<path d="M1688 815 c20 -15 22 -25 22 -101 0 -71 -3 -87 -20 -104 l-20 -20 55
0 55 0 -21 21 c-14 14 -19 30 -17 52 3 30 6 32 47 38 47 6 71 28 71 64 0 41
-35 59 -118 63 -73 3 -76 3 -54 -13z m120 -17 c22 -22 15 -67 -12 -80 -40 -18
-56 -5 -56 47 0 43 1 45 28 45 15 0 33 -5 40 -12z"/>
<path d="M601 792 c-1 -13 -19 -76 -41 -139 -22 -64 -40 -121 -40 -126 0 -22
63 50 83 93 22 48 26 129 9 170 l-11 25 0 -23z"/>
<path d="M156 778 c-9 -37 -7 -97 6 -141 12 -40 91 -137 102 -126 5 5 -87 275
-97 286 -3 2 -7 -7 -11 -19z"/>
<path d="M652 755 c0 -16 2 -22 5 -12 2 9 2 23 0 30 -3 6 -5 -1 -5 -18z"/>
<path d="M1130 770 c44 -11 60 -34 60 -87 0 -52 -26 -83 -69 -83 -37 0 -71 40
-71 85 0 18 9 44 21 59 26 33 6 34 -26 1 -58 -57 -11 -155 74 -155 57 0 103
41 103 93 0 21 -6 44 -13 53 -18 22 -65 44 -91 43 -16 -1 -13 -3 12 -9z"/>
<path d="M2296 761 c-26 -28 -13 -54 44 -89 53 -33 59 -42 35 -62 -22 -18 -62
-4 -79 28 l-15 27 -1 -35 c0 -35 0 -35 49 -38 93 -5 112 61 31 108 -25 14 -46
33 -48 42 -5 26 29 31 60 8 l28 -21 0 23 c0 20 -6 23 -44 25 -32 2 -47 -2 -60
-16z"/>
<path d="M2467 762 c-32 -35 -17 -62 51 -96 56 -29 33 -84 -24 -57 -13 6 -29
21 -34 33 -8 20 -9 19 -9 -12 -1 -35 -1 -35 47 -38 38 -2 52 2 66 17 28 30 14
67 -35 91 -44 23 -59 47 -38 61 20 13 27 11 49 -11 19 -19 20 -19 20 -1 0 33
-67 42 -93 13z"/>
<path d="M113 715 c0 -33 2 -45 4 -27 2 18 2 45 0 60 -2 15 -4 0 -4 -33z"/>
<path d="M1278 693 c3 -65 1 -79 -14 -90 -16 -12 -12 -13 30 -12 33 2 43 5 32
11 -17 9 -23 68 -7 68 5 0 23 -17 39 -37 20 -26 39 -38 57 -40 l28 -1 -27 18
c-15 9 -34 27 -43 40 -15 21 -15 23 0 32 9 5 21 18 27 28 13 25 -19 60 -52 59
l-23 0 23 -9 c27 -11 31 -64 6 -74 -38 -15 -46 -8 -42 39 3 40 1 45 -17 45
-19 0 -20 -5 -17 -77z"/>
<path d="M1478 695 c3 -53 0 -81 -10 -92 -12 -15 -7 -16 57 -10 61 6 73 10 98
37 35 39 35 74 -2 111 -26 25 -37 29 -88 29 l-58 0 3 -75z m114 48 c12 -11 18
-30 18 -59 0 -53 -21 -76 -64 -72 l-31 3 -3 73 -3 72 32 0 c18 0 41 -7 51 -17z"/>
<path d="M1912 733 c13 -47 2 -120 -20 -133 -13 -7 -3 -9 38 -9 42 0 51 2 38
10 -12 6 -18 22 -18 42 l1 32 37 -42 38 -43 107 0 c105 0 107 1 106 23 0 12
-3 16 -6 10 -7 -19 -80 -17 -87 3 -13 34 -7 54 18 54 13 0 27 -6 29 -12 3 -7
5 5 5 27 0 22 -2 32 -5 23 -3 -11 -14 -18 -29 -18 -20 0 -24 5 -24 30 0 27 3
30 33 30 18 0 38 -5 45 -12 9 -9 12 -8 12 5 0 14 -11 17 -72 17 -56 0 -69 -3
-60 -12 18 -18 16 -133 -3 -148 -19 -16 -60 3 -83 38 -14 21 -13 24 7 38 26
19 28 60 2 74 -11 5 -42 10 -70 10 l-49 0 10 -37z m86 15 c18 -18 14 -46 -7
-58 -33 -17 -41 -11 -41 30 0 32 4 40 18 40 10 0 23 -5 30 -12z"/>
<path d="M652 675 c0 -16 2 -22 5 -12 2 9 2 23 0 30 -3 6 -5 -1 -5 -18z"/>
<path d="M386 670 c-3 -8 -17 -46 -30 -85 -13 -38 -27 -78 -31 -87 -6 -16 0
-18 64 -18 39 0 71 3 71 8 0 24 -69 195 -74 182z"/>
<path d="M631 604 c-8 -21 -36 -60 -63 -86 -58 -56 -56 -64 3 -11 40 37 83
106 77 124 -2 6 -10 -7 -17 -27z"/>
<path d="M130 604 c0 -37 126 -155 164 -154 6 0 2 6 -9 12 -60 32 -90 58 -121
103 -19 27 -34 45 -34 39z"/>
<path d="M480 460 c-8 -5 -10 -10 -5 -10 6 0 17 5 25 10 8 5 11 10 5 10 -5 0
-17 -5 -25 -10z"/>
<path d="M323 443 c9 -2 23 -2 30 0 6 3 -1 5 -18 5 -16 0 -22 -2 -12 -5z"/>
<path d="M390 440 c-20 -6 -21 -8 -5 -8 11 0 34 4 50 8 27 7 27 8 5 8 -14 0
-36 -4 -50 -8z"/>
</g>
</svg>
